<?xml version="1.0" encoding="UTF-8"?>
<!DOCTYPE svg PUBLIC "-//W3C//DTD SVG 1.1//EN" "http://www.w3.org/Graphics/SVG/1.1/DTD/svg11.dtd">
<!-- Creator: CorelDRAW 2020 (64-Bit) -->
<svg xmlns="http://www.w3.org/2000/svg" xml:space="preserve" width="100%" height="100%" version="1.1" style="shape-rendering:geometricPrecision; text-rendering:geometricPrecision; image-rendering:optimizeQuality; fill-rule:evenodd; clip-rule:evenodd"
viewBox="0 0 86698.6 86698.6"
 xmlns:xlink="http://www.w3.org/1999/xlink"
 xmlns:xodm="http://www.corel.com/coreldraw/odm/2003">
 <defs>
  <style type="text/css">
   <![CDATA[
    .fil0 {fill:#000000}
   ]]>
  </style>
 </defs>
 <g id="Layer_x0020_1">
  <metadata id="CorelCorpID_0Corel-Layer"/>
  <path class="fil0" d="M54511 8634c-1159.3,1800.2 -480.5,1273.4 -2801.1,2173.2l-1867.4 724.1 -932.8 1448.1 0 2172.2 -1867.4 0c-1852.5,1436.2 -1734.4,852 -2801.1,1448.1 -1163.8,650.4 -1504.4,1782.3 -1867.4,2172.2 -261.5,281.4 -1125.5,616.5 -1867.5,2172.2 -760.4,1595 -1749.4,6958.3 -1867.9,7241.6 -551.3,1315.2 -1866.4,2171.2 -1866.9,2172.2l-1867.4 4344.4 -933.8 6517.1 -2801.1 -2172.7c-1067.7,-596.1 -949.1,-11.5 -2801.1,-1447.7l-7470.2 -5793.5c-768.4,-826.1 -15,-736 -1867.4,-2171.6 -1851.5,-1436.7 -1098.1,-1344.6 -1867.5,-2172.7 -777.3,-836.1 -254.9,328.6 -1867.4,-2172.2 -1613,-2501.4 -1090.1,-1336.1 -1867.4,-2172.7l-1867.4 -2895.8 -933.3 -724c-768.8,-828.2 -15.9,-736.5 -1867.9,-2172.7l-2801.1 0 0 5792.5 1867.9 4344.9 0 4344.3 933.2 1448.7 933.7 724.5c768.9,827.2 15.5,735 1867.5,2171.7l933.7 724.1 933.7 5068.9 934.2 2172.2 1867.4 1448.1 933.2 1448.7c45.3,34.3 2363.9,788.8 2801.2,1448.1l933.7 4344.4 933.7 724c360.5,388.4 705.1,1522.3 1867.4,2172.7 1067.2,596.1 949.7,12 2801.6,1447.6 1987.5,1541.8 1270.9,1217.1 3734.9,2172.7l1867.4 724.1 933.7 724 0 724.1c-3174.1,820.7 -1979.4,496 -4668.5,1448.1 -2154.8,692.2 -1629.9,269.9 -4669.1,1448.2 -3039.7,1178.7 -2511.8,755.4 -4668.1,1448.6l-5602.7 2172.2c-1077.2,602 424.3,197.7 -2800.7,1448.6 -2465.5,955.6 -1746.4,629.4 -3734.8,2171.7l0 1448.6 1866.9 723.6 -1866.9 1449.1 0 2171.7 8403.4 0 -0.5 1448.1 5602.3 0 3735.3 -1448.1 1867.4 -1448.1c1067.2,-597.1 947.7,-11.5 2801.2,-1448.7l6536 -5067.9c3420.6,0 1633.3,164.3 3734.8,723.6l4668.6 724 10269.8 0 5602.3 -1447.6 3735.3 -1448.6 933.8 -724.6c1067.1,-596.1 948.6,-11.4 2801.1,-1447.6l2801.1 -2172.2 1867.5 -2896.8 0.4 -1448.1 1867 0c1370.9,-1063.2 1021.8,-746.4 3734.8,-1448.1l2801.2 -724.6 0 -1447.6 -7469.7 -2896.7 -933.7 -724.1 -4668.6 0 -3734.9 1448.1 -5602.7 0 -1867.5 -724 -2800.1 -4344.4 -933.7 -2172.2 0 -5068.9 4667.6 -7240.7 933.7 -13758.2c262.4,-1856.9 1759.8,-7117.6 1867.4,-7965.1 147.9,-2315.7 -48.8,-2287.3 -933.7,-4344.9l-3734.9 0 -933.7 723.5zm-140.9 5045.6l-1568.1 -2363.4 -3471 7532.4 -421.3 -2248.9c-9410.8,1949.1 -7470.2,13174.1 -7470.7,22447l-932.7 0 0 -9412.8c-2517.8,1430.2 -3734.8,3881.7 -3734.8,7240.6l-36.9 10048.7 -4112.8 913.3 2282.3 5692.4c-2542.7,-1444.1 -2801.2,-2028.7 -2801.2,-5068.4 0,-2002.9 720.1,-1741.5 2801.2,-2172.2 -416.4,-3878.8 -10875.4,-8903.4 -14180,-12175.1 -3232.4,-3198 -10042.8,-12410.2 -12897.7,-13892.7 140.4,4898.7 1866.9,4488.3 1866.9,10137.4 0,827.2 5721.8,6297 6536.5,7241.1 -639.9,883 -934.2,773.9 -934.2,2172.2 0,7155.5 7839.7,6575.4 11168.2,10226.1l-3699 -813.3 0.5 2173.2c0,4040.1 12129.3,7162.5 14868.2,10018.4l-28349 10302.7 501.9 887.9 10263.4 -2270.8 -10895.3 4970.8 538.8 710.2 2801.2 0.5c2804.6,-0.5 6024,-1574.2 9392.9,-2140.4l-3259.8 3351.9 960.6 747 18116.5 -11372.8c1609.5,3447 8241.1,2897.2 13071.5,2897.2 4749.2,0 12584.9,-3006.8 15211.8,-4858.3 3762.7,-2653.2 2182.1,-3244.3 4191.5,-5437.9 1377.4,-1502.9 4548.5,-1985 6741.1,-3462 -1916.2,-346.1 -6507.6,-2172.7 -6536,-2172.7 -3071,0 -4041.6,2172.7 -8403.4,2172.7l-1867.9 0c-6357.7,0 -10270.8,-5953.8 -10270.8,-10861.4l0 -2172.7c0,-4268.7 6152,-7417.9 5821.8,-12343.4l1647.9 -17344.7 0 -3620.3 -1725.5 23.9 -1216.6 4296.6zm15681.4 40849.8c577.6,0 1045.7,317.7 1045.7,709.6 0,391.9 -468.1,709.6 -1045.7,709.6 -577.7,0 -1045.8,-317.7 -1045.8,-709.6 0,-391.9 468.1,-709.6 1045.8,-709.6z"/>
 </g>
</svg>
